<svg width="65" height="65" viewBox="0 0 65 65" fill="none" xmlns="http://www.w3.org/2000/svg">
<path opacity="0.4" d="M43.9833 9.88538H21.0167C14.3271 9.88538 8.9104 15.3291 8.9104 21.9916V47.477C8.9104 54.1395 14.3542 59.5833 21.0167 59.5833H43.9562C50.6458 59.5833 56.0625 54.1395 56.0625 47.477V21.9916C56.0896 15.302 50.6458 9.88538 43.9833 9.88538Z" fill="#E37590"/>
<path d="M38.8645 5.41663H26.1353C23.3187 5.41663 21.0166 7.69163 21.0166 10.5083V13.0541C21.0166 15.8708 23.2916 18.1458 26.1083 18.1458H38.8645C41.6812 18.1458 43.9562 15.8708 43.9562 13.0541V10.5083C43.9833 7.69163 41.6812 5.41663 38.8645 5.41663Z" fill="#E37590"/>
<path d="M29.2772 45.9063C28.7626 45.9063 28.248 45.7167 27.8417 45.3104L23.7792 41.2479C22.9938 40.4625 22.9938 39.1625 23.7792 38.3771C24.5647 37.5917 25.8647 37.5917 26.6501 38.3771L29.2772 41.0042L38.6751 31.6063C39.4605 30.8209 40.7605 30.8209 41.5459 31.6063C42.3313 32.3917 42.3313 33.6917 41.5459 34.4771L30.7126 45.3104C30.3334 45.7167 29.7917 45.9063 29.2772 45.9063Z" fill="#E37590"/>
</svg>
