<svg width="65" height="65" viewBox="0 0 65 65" fill="none" xmlns="http://www.w3.org/2000/svg">
<path d="M44.9312 20.0687L17.0895 47.9104C15.7895 49.2104 13.5686 48.9125 12.7832 47.2604C11.3749 44.3625 10.5624 41.0854 10.5624 37.6458C10.5082 22.6958 25.6749 9.91246 30.8207 5.98538C31.8228 5.22704 33.177 5.22704 34.152 5.98538C36.5082 7.77288 40.9228 11.4833 45.0666 16.3583C45.9874 17.4416 45.9332 19.0666 44.9312 20.0687Z" fill="#E37590"/>
<path opacity="0.4" d="M54.4375 37.6729C54.4375 49.7521 44.6062 59.5833 32.5 59.5833C27.6521 59.5833 23.1292 58.0125 19.4729 55.3041C18.1458 54.3291 18.0375 52.3791 19.2021 51.2146L46.475 23.9416C47.7479 22.6687 49.8875 22.9396 50.7542 24.5104C52.975 28.6 54.4646 33.0416 54.4375 37.6729Z" fill="#E37590"/>
</svg>
