<svg width="65" height="65" viewBox="0 0 65 65" fill="none" xmlns="http://www.w3.org/2000/svg">
<path d="M42.9 59.5834H22.1C10.752 59.5834 8.50413 52.7313 12.1875 44.3896L16.0875 35.5334C16.0875 35.5334 24.375 35.2084 32.5 37.9167C40.625 40.625 48.2895 35.5063 48.2895 35.5063L48.8041 35.1813L52.8395 44.4167C56.4687 52.7584 54.0854 59.5834 42.9 59.5834Z" fill="#E37590"/>
<path opacity="0.4" d="M48.8041 35.1812L48.2895 35.5062C48.2895 35.5062 40.6249 40.625 32.4999 37.9166C24.3749 35.2083 16.0874 35.5333 16.0874 35.5333L23.6707 18.2541H22.8582C21.0978 18.2541 19.4728 17.55 18.3082 16.3854C17.1437 15.2208 16.4395 13.5958 16.4395 11.8354C16.4395 8.31454 19.3103 5.41663 22.8582 5.41663H42.1145C43.902 5.41663 45.4999 6.14788 46.6645 7.31246C48.1812 8.82913 48.9666 11.05 48.3707 13.4062C47.6666 16.3312 44.8499 18.2541 41.8166 18.2541H41.3832L48.8041 35.1812Z" fill="#E37590"/>
</svg>
