<svg width="65" height="65" viewBox="0 0 65 65" fill="none" xmlns="http://www.w3.org/2000/svg">
<path opacity="0.4" d="M58.6353 27.1646C57.5791 25.6479 55.7103 24.7813 53.5707 24.7813H42.4666C41.7353 24.7813 41.0582 24.4833 40.5978 23.9417C40.1103 23.4 39.9207 22.6417 40.0291 21.8563L41.4103 12.9729C42.0061 10.3188 40.2457 7.33959 37.5916 6.44584C35.127 5.525 32.2291 6.77084 31.0645 8.53125L19.6353 25.5125L19.3103 26.0542V49.9958L19.7166 50.4021L28.302 57.0375C29.4395 58.175 32.0124 58.7979 33.827 58.7979H44.3895C48.0186 58.7979 51.6749 56.0625 52.4874 52.7313L59.1499 32.4458C59.8541 30.5229 59.6645 28.6542 58.6353 27.1646Z" fill="#E37590"/>
<path d="M14.1105 17.2792H11.3209C7.123 17.2792 5.41675 18.9042 5.41675 22.9125V50.1583C5.41675 54.1667 7.123 55.7917 11.3209 55.7917H14.1105C18.3084 55.7917 20.0147 54.1667 20.0147 50.1583V22.9125C20.0147 18.9042 18.3084 17.2792 14.1105 17.2792Z" fill="#E37590"/>
</svg>
