<svg width="188" height="68" viewBox="0 0 188 68" fill="none" xmlns="http://www.w3.org/2000/svg">
<path d="M3.24653 66.8794C8.7325 48.881 14.8794 30.5037 23.8024 13.8315C24.7938 12.0001 21.8856 10.4213 20.9603 12.2527C11.9051 29.1775 5.62599 47.8075 0.0739271 66.0585C-0.520937 68.0162 2.65167 68.8372 3.24653 66.8794Z" fill="#E37590"/>
<path d="M10.0542 18.8206C21.7532 15.8524 34.6419 15.7261 46.6052 15.2209C48.7203 15.0946 48.7203 11.937 46.6052 12.0633C36.8891 12.5053 27.2391 13.1368 17.5891 14.3999C14.747 14.7788 11.9049 15.0946 9.12884 15.7892C7.07987 16.2945 7.93911 19.3889 10.0542 18.8206Z" fill="#E37590"/>
<path d="M6.41926 38.2084C12.9628 36.6296 19.9689 36.4401 26.6446 36.3138C28.7597 36.2507 28.7597 33.0931 26.6446 33.1562C19.7045 33.2825 12.3679 33.472 5.56002 35.1139C3.51104 35.6191 4.37029 38.7136 6.41926 38.2084Z" fill="#E37590"/>
<path d="M31.6015 37.0717C33.1878 38.7136 35.7656 39.4715 38.0128 38.9663C40.4584 38.3979 44.5563 35.9349 45.4156 33.4089C46.1426 31.2617 44.9529 29.0513 42.6396 28.6093C39.2687 27.9778 36.1622 30.3144 33.8488 32.3353C29.883 35.7455 23.8022 44.9657 31.205 48.3128C35.5012 50.2705 39.9296 47.8707 43.631 45.8498C48.3238 43.3238 52.9505 40.7977 57.6433 38.2716C59.494 37.2611 57.8416 34.5456 55.9909 35.556C50.1084 38.7136 44.4241 42.4396 38.3433 45.0289C36.2943 45.913 32.4608 46.6708 31.271 44.271C29.6187 40.924 33.4522 36.8822 35.7656 34.7982C36.8892 33.7878 38.0789 32.7773 39.467 32.209C40.7228 31.7037 42.6396 31.1985 41.9125 32.8405C41.2515 34.1667 37.8146 35.9981 36.3604 35.9981C35.4351 35.9981 34.5098 35.4929 33.9149 34.8614C32.4608 33.3457 30.1474 35.556 31.6015 37.0717Z" fill="#E37590"/>
<path d="M74.4317 0.569564C70.3338 5.43229 67.029 10.9897 64.0547 16.4839C59.6262 24.6306 55.9249 33.093 53.4132 41.9343C52.8844 43.892 56.057 44.713 56.5858 42.7553C59.0314 34.1666 62.6005 25.9568 66.8968 18.0627C69.7389 12.758 72.8454 7.39001 76.7451 2.77989C78.067 1.20109 75.7537 -1.0724 74.4317 0.569564Z" fill="#E37590"/>
<path d="M57.247 40.2923C58.5689 38.5872 60.4857 36.6295 62.5346 35.5559C66.963 33.1561 67.5579 38.7766 66.6987 41.6816C65.4428 45.9128 60.1552 49.3862 56.6521 52.0386C57.5774 52.5438 58.5028 53.0491 59.4281 53.5543C59.2298 53.9963 59.8247 52.9859 60.023 52.7333C60.75 51.8492 61.6754 51.0913 62.6007 50.3335C64.848 48.5652 67.3596 47.239 69.9374 45.976C75.7538 43.0078 81.9668 39.9134 88.5103 38.7135C90.6254 38.3346 89.7 35.3033 87.6511 35.6822C80.6449 36.9452 73.7709 40.4186 67.5579 43.6394C63.7243 45.6602 58.0401 48.4389 56.3216 52.7333C55.6607 54.3753 57.974 55.1331 59.0976 54.249C64.7158 50.0809 71.1271 45.2182 70.4 37.7662C70.0035 33.8508 66.7648 30.6932 62.5346 32.1457C59.2298 33.2824 56.586 36.1242 54.537 38.7135C53.149 40.3554 55.9911 41.9343 57.247 40.2923Z" fill="#E37590"/>
<path d="M125.59 22.5466C129.622 20.5257 132.464 15.4104 130.68 11.1792C128.763 6.56907 123.211 4.5482 118.452 4.86396C114.684 5.17972 111.247 6.44276 108.009 8.27418C104.175 10.4214 100.804 13.2632 97.7638 16.3577C95.7809 18.3785 93.9303 20.5257 93.5337 23.3676C92.4762 30.188 100.738 32.0194 106.092 32.6509C105.96 31.6405 105.828 30.5669 105.629 29.5565C100.474 31.3879 95.3844 33.6614 90.7577 36.5032C86.9241 38.903 83.0244 41.9975 82.8922 46.7971C82.7601 51.9755 87.2546 55.5752 92.2118 56.333C98.0943 57.2172 103.911 55.5752 109.198 53.1754C115.411 50.3967 121.691 46.0392 123.872 39.5345C124.533 37.5768 121.36 36.7558 120.699 38.7136C118.716 44.5867 112.437 48.3759 106.819 50.7757C101.994 52.7965 94.9217 54.8805 89.7662 52.4808C83.0244 49.26 86.9902 42.7553 91.3525 39.9135C95.9792 36.8822 101.267 34.5455 106.488 32.6509C108.273 32.0194 107.943 29.7459 106.026 29.5565C101.201 28.9881 94.1285 27.0304 97.7638 21.3467C100.077 17.747 104.373 14.4631 107.943 12.1896C110.19 10.7371 112.635 9.47407 115.213 8.71624C118.848 7.70581 123.211 7.70581 126.053 10.4845C129.093 13.3895 128.036 17.8733 123.938 19.9573C122.021 20.7783 123.673 23.4939 125.59 22.5466Z" fill="#E37590"/>
<path d="M142.973 5.30603C139.536 13.2001 136.033 21.0309 132.53 28.925C130.613 33.2193 128.696 37.5137 126.78 41.8712C124.4 47.176 121.69 53.0491 121.756 58.9855C121.756 61.0063 125.061 61.0063 125.061 58.9855C124.995 53.2386 127.837 47.4917 130.15 42.3133C132.199 37.7031 134.248 33.093 136.297 28.5461C139.602 21.0941 142.907 13.6421 146.212 6.19016C147.005 4.2956 143.832 3.47462 142.973 5.30603Z" fill="#E37590"/>
<path d="M140.461 30.2513C139.404 36.3139 138.346 42.3134 137.289 48.376C137.09 49.5128 138.016 50.7127 139.338 50.3337C141.783 49.6391 143.964 47.7445 145.617 46.0394C151.433 40.2925 155.002 32.7143 157.977 25.3886C158.77 23.494 155.531 22.6731 154.804 24.5676C152.028 31.3881 148.657 38.5243 143.237 43.8291C141.915 45.0921 139.668 46.9235 138.412 47.3024C139.073 47.934 139.8 48.6286 140.461 49.2602C141.519 43.1975 142.576 37.1981 143.634 31.1355C144.03 29.1146 140.858 28.2305 140.461 30.2513Z" fill="#E37590"/>
<path d="M165.512 24.5044C161.877 30.3144 158.109 36.1875 155.003 42.3765C154.209 43.9553 156.192 45.5341 157.58 44.271C160.885 41.3029 164.322 38.461 167.891 35.7455C169.147 34.7982 170.337 33.9141 171.659 33.0931C172.452 32.5879 173.708 32.209 174.303 31.5774C174.435 31.4511 175.03 31.4511 175.096 31.3248C174.633 30.5038 174.237 30.4407 173.972 31.1354C173.84 31.3248 173.708 31.5143 173.51 31.7037C172.452 32.7142 171.659 34.2298 170.866 35.4929C169.412 37.8927 167.495 41.1766 168.222 44.0816C168.949 46.8603 172.188 47.9339 174.831 47.0497C177.013 46.2919 179.062 44.65 181.044 43.4501C183.093 42.187 185.076 40.9871 187.125 39.7241C188.91 38.6505 187.257 35.8718 185.473 37.0085C183.887 37.9558 173.113 45.9762 171.593 43.7027C170.073 41.4292 174.237 36.3139 175.492 34.5456C176.616 33.0299 178.665 30.6933 176.814 28.925C173.972 26.1463 167.495 32.0827 165.446 33.5983C161.877 36.3139 158.44 39.1557 155.135 42.1239C155.994 42.7554 156.853 43.3869 157.713 44.0184C160.819 37.8927 164.587 32.0195 168.222 26.1463C169.478 24.3781 166.636 22.7993 165.512 24.5044Z" fill="#E37590"/>
</svg>
