<svg width="124" height="46" viewBox="0 0 124 46" fill="none" xmlns="http://www.w3.org/2000/svg">
<path d="M2.8374 44.3777C6.41584 32.6375 10.4254 20.6502 16.2457 9.77513C16.8925 8.58052 14.9955 7.55069 14.3919 8.7453C8.48529 19.7852 4.38949 31.9372 0.767948 43.8422C0.379926 45.1192 2.44938 45.6547 2.8374 44.3777Z" fill="#231F20"/>
<path d="M7.27799 13.0294C14.9091 11.0933 23.3162 11.011 31.1198 10.6814C32.4994 10.599 32.4994 8.53934 31.1198 8.62173C24.7821 8.91009 18.4875 9.32202 12.1929 10.1459C10.3391 10.3931 8.48517 10.599 6.6744 11.0521C5.33787 11.3817 5.89835 13.4002 7.27799 13.0294Z" fill="#231F20"/>
<path d="M4.90703 25.6758C9.17528 24.646 13.7453 24.5224 18.0998 24.44C19.4794 24.3989 19.4794 22.3392 18.0998 22.3804C13.5729 22.4628 8.78725 22.5863 4.34655 23.6574C3.01003 23.9869 3.57051 26.0054 4.90703 25.6758Z" fill="#231F20"/>
<path d="M21.3331 24.9344C22.3679 26.0054 24.0493 26.4997 25.5151 26.1702C27.1103 25.7995 29.7834 24.1929 30.3439 22.5452C30.8181 21.1446 30.0421 19.7028 28.5331 19.4145C26.3343 19.0025 24.308 20.5267 22.799 21.8449C20.2122 24.0693 16.2457 30.0836 21.0744 32.2668C23.8768 33.5438 26.7654 31.9785 29.1798 30.6603C32.2409 29.0125 35.2588 27.3648 38.3199 25.7171C39.5271 25.058 38.4492 23.2866 37.2421 23.9457C33.4049 26.0054 29.6972 28.4358 25.7307 30.1248C24.3942 30.7015 21.8936 31.1958 21.1176 29.6304C20.0397 27.4472 22.5403 24.8108 24.0493 23.4514C24.7822 22.7923 25.5583 22.1332 26.4636 21.7625C27.2828 21.4329 28.5331 21.1034 28.0589 22.1744C27.6277 23.0395 25.3858 24.2341 24.4373 24.2341C23.8337 24.2341 23.2301 23.9046 22.8421 23.4926C21.8936 22.504 20.3846 23.9457 21.3331 24.9344Z" fill="#231F20"/>
<path d="M49.2707 1.12451C46.5977 4.29641 44.442 7.92144 42.5019 11.5053C39.6133 16.8192 37.1989 22.3392 35.5606 28.1063C35.2157 29.3832 37.2851 29.9188 37.63 28.6418C39.2253 23.0394 41.5534 17.6843 44.3558 12.5351C46.2097 9.07486 48.236 5.57341 50.7797 2.56628C51.642 1.53645 50.133 0.0534798 49.2707 1.12451Z" fill="#231F20"/>
<path d="M38.0612 27.0352C38.9235 25.923 40.1738 24.646 41.5103 23.9457C44.3989 22.3804 44.7869 26.0466 44.2265 27.9415C43.4073 30.7015 39.9582 32.9671 37.6732 34.6972C38.2768 35.0268 38.8804 35.3563 39.484 35.6859C39.3546 35.9742 39.7427 35.3151 39.872 35.1504C40.3462 34.5737 40.9498 34.0793 41.5534 33.585C43.0193 32.4316 44.6576 31.5665 46.339 30.7427C50.133 28.8066 54.1857 26.7881 58.454 26.0054C59.8336 25.7582 59.23 23.781 57.8935 24.0281C53.3234 24.852 48.8396 27.1176 44.7869 29.2185C42.2864 30.5367 38.5786 32.3492 37.4576 35.1504C37.0265 36.2214 38.5355 36.7157 39.2684 36.139C42.9331 33.4202 47.1151 30.2483 46.6408 25.3875C46.3821 22.8335 44.2696 20.7738 41.5103 21.7213C39.3546 22.4628 37.6301 24.3165 36.2936 26.0054C35.3882 27.0764 37.2421 28.1063 38.0612 27.0352Z" fill="#231F20"/>
<path d="M82.6408 15.4598C85.2708 14.1417 87.1246 10.805 85.9606 8.04502C84.7103 5.0379 81.0887 3.7197 77.9846 3.92567C75.5271 4.13164 73.2852 4.95551 71.1726 6.15012C68.672 7.5507 66.4732 9.4044 64.49 11.4229C63.1966 12.7411 61.9894 14.1417 61.7307 15.9954C61.0409 20.4443 66.4301 21.6389 69.9223 22.0508C69.8361 21.3917 69.7499 20.6914 69.6205 20.0323C66.2577 21.2269 62.9379 22.7099 59.92 24.5636C57.4194 26.129 54.8757 28.1474 54.7895 31.2781C54.7032 34.656 57.6349 37.004 60.8685 37.4984C64.7056 38.0751 68.4996 37.004 71.9487 35.4387C76.0013 33.6262 80.0971 30.7838 81.5199 26.5409C81.951 25.2639 79.8816 24.7284 79.4504 26.0054C78.157 29.8364 74.0612 32.308 70.3966 33.8733C67.2493 35.1915 62.6361 36.5509 59.2733 34.9856C54.8757 32.8847 57.4625 28.6418 60.308 26.7881C63.3259 24.8108 66.775 23.2866 70.181 22.0508C71.3451 21.6389 71.1295 20.1559 69.8792 20.0323C66.7319 19.6616 62.1188 18.3846 64.49 14.6772C65.999 12.3291 68.8014 10.1871 71.1295 8.70412C72.5954 7.75666 74.1906 6.9328 75.872 6.43847C78.2432 5.77938 81.0887 5.77938 82.9426 7.59189C84.9258 9.48679 84.236 12.4115 81.563 13.7709C80.3127 14.3064 81.3905 16.0778 82.6408 15.4598Z" fill="#231F20"/>
<path d="M93.9794 4.21407C91.7375 9.36325 89.4524 14.4712 87.1674 19.6204C85.9171 22.4216 84.6668 25.2227 83.4166 28.0651C81.8645 31.5254 80.0968 35.3563 80.1399 39.2285C80.1399 40.5467 82.2956 40.5467 82.2956 39.2285C82.2525 35.4799 84.1064 31.7313 85.6153 28.3535C86.9519 25.3463 88.2884 22.3392 89.6249 19.3733C91.7806 14.5124 93.9362 9.65161 96.0919 4.79078C96.6093 3.55497 94.5398 3.01946 93.9794 4.21407Z" fill="#231F20"/>
<path d="M92.3413 20.4855C91.6515 24.4401 90.9617 28.3535 90.2719 32.3081C90.1425 33.0495 90.7461 33.8322 91.6084 33.5851C93.2036 33.1319 94.6263 31.8961 95.7042 30.7839C99.4981 27.0353 101.826 22.0921 103.766 17.3136C104.284 16.0778 102.171 15.5423 101.697 16.7781C99.8862 21.227 97.6874 25.8819 94.1521 29.3421C93.2898 30.166 91.8239 31.3606 91.0048 31.6078C91.4359 32.0197 91.9102 32.4728 92.3413 32.8848C93.0311 28.9302 93.7209 25.0168 94.4108 21.0622C94.6694 19.744 92.6 19.1673 92.3413 20.4855Z" fill="#231F20"/>
<path d="M108.681 16.7369C106.31 20.5267 103.853 24.3577 101.826 28.3946C101.309 29.4245 102.602 30.4543 103.508 29.6305C105.663 27.6944 107.905 25.8406 110.233 24.0693C111.053 23.4514 111.829 22.8747 112.691 22.3392C113.208 22.0097 114.027 21.7625 114.415 21.3506C114.502 21.2682 114.89 21.2682 114.933 21.1858C114.631 20.6503 114.372 20.6091 114.2 21.0622C114.114 21.1858 114.027 21.3094 113.898 21.4329C113.208 22.092 112.691 23.0807 112.174 23.9046C111.225 25.4699 109.975 27.612 110.449 29.5069C110.923 31.3194 113.036 32.0197 114.76 31.443C116.183 30.9486 117.52 29.8776 118.813 29.0949C120.15 28.2711 121.443 27.4884 122.78 26.6645C123.944 25.9642 122.866 24.1517 121.702 24.8932C120.667 25.5111 113.639 30.7427 112.648 29.2597C111.656 27.7767 114.372 24.4401 115.192 23.2867C115.924 22.298 117.261 20.7738 116.054 19.6204C114.2 17.8079 109.975 21.6801 108.638 22.6687C106.31 24.4401 104.068 26.2938 101.913 28.2299C102.473 28.6418 103.033 29.0537 103.594 29.4657C105.62 25.4699 108.078 21.6389 110.449 17.8079C111.268 16.6545 109.414 15.6247 108.681 16.7369Z" fill="#231F20"/>
</svg>
