<svg width="137" height="61" viewBox="0 0 137 61" fill="none" xmlns="http://www.w3.org/2000/svg">
<path d="M2.35424 59.9948C6.3324 43.8492 10.7899 27.3636 17.2604 12.4077C17.9793 10.7648 15.8704 9.34853 15.1994 10.9914C8.63303 26.174 4.07971 42.8861 0.0536085 59.2583C-0.377759 61.0145 1.92287 61.751 2.35424 59.9948Z" fill="white"/>
<path d="M7.29104 16.8834C15.7746 14.2207 25.1209 14.1074 33.7962 13.6542C35.3299 13.5409 35.3299 10.7084 33.7962 10.8217C26.7505 11.2182 19.7528 11.7847 12.755 12.9178C10.694 13.2577 8.63307 13.5409 6.62002 14.1641C5.1342 14.6173 5.75729 17.3932 7.29104 16.8834Z" fill="white"/>
<path d="M4.65495 34.2751C9.39999 32.8588 14.4805 32.6889 19.3214 32.5756C20.8552 32.5189 20.8552 29.6864 19.3214 29.743C14.2888 29.8563 8.96862 30.0263 4.03186 31.4992C2.54604 31.9524 3.16913 34.7283 4.65495 34.2751Z" fill="white"/>
<path d="M22.916 33.2552C24.0663 34.7281 25.9355 35.4079 27.5652 34.9547C29.3386 34.4448 32.3102 32.2354 32.9333 29.9694C33.4605 28.0432 32.5978 26.0604 30.9202 25.6639C28.4758 25.0974 26.2231 27.1935 24.5456 29.0063C21.6698 32.0655 17.2603 40.3366 22.6284 43.3391C25.7438 45.0953 28.9551 42.9425 31.6392 41.1297C35.0422 38.8636 38.3973 36.5976 41.8003 34.3315C43.1423 33.4251 41.9441 30.9891 40.602 31.8955C36.3363 34.7281 32.2143 38.0705 27.8048 40.3932C26.319 41.1863 23.5391 41.8661 22.6763 39.7134C21.4781 36.7109 24.258 33.0852 25.9355 31.2157C26.7503 30.3093 27.6131 29.4029 28.6196 28.893C29.5303 28.4398 30.9202 27.9866 30.393 29.4595C29.9137 30.6492 27.4214 32.2921 26.3669 32.2921C25.6959 32.2921 25.0249 31.8389 24.5935 31.2724C23.5391 29.9127 21.8615 31.8955 22.916 33.2552Z" fill="white"/>
<path d="M53.9744 0.510932C51.0028 4.87308 48.6063 9.85839 46.4494 14.7871C43.2381 22.0951 40.5541 29.6863 38.7328 37.6175C38.3493 39.3737 40.6499 40.1102 41.0334 38.354C42.8068 30.6494 45.395 23.2847 48.5104 16.2033C50.5714 11.4446 52.8241 6.62927 55.6519 2.49373C56.6105 1.07744 54.933 -0.962001 53.9744 0.510932Z" fill="white"/>
<path d="M41.5128 36.1446C42.4714 34.615 43.8613 32.8589 45.3472 31.8958C48.5585 29.743 48.9898 34.785 48.3667 37.391C47.4561 41.1866 43.6217 44.3024 41.0814 46.6818C41.7524 47.135 42.4235 47.5882 43.0945 48.0414C42.9507 48.438 43.3821 47.5315 43.5258 47.3049C44.0531 46.5118 44.7241 45.832 45.3951 45.1522C47.0247 43.5659 48.846 42.3763 50.7153 41.2432C54.9331 38.5806 59.4385 35.8047 64.1835 34.7284C65.7173 34.3884 65.0463 31.6692 63.5604 32.0091C58.4799 33.1421 53.4952 36.2579 48.9898 39.1471C46.2099 40.96 42.0879 43.4526 40.8418 47.3049C40.3625 48.7779 42.04 49.4577 42.8548 48.6646C46.9288 44.9256 51.578 40.5634 51.0508 33.8786C50.7632 30.3662 48.4147 27.5336 45.3472 28.8366C42.9507 29.8563 41.0335 32.4056 39.5477 34.7284C38.5412 36.2013 40.6021 37.6176 41.5128 36.1446Z" fill="white"/>
<path d="M91.072 20.2257C93.9958 18.4129 96.0567 13.8241 94.7626 10.0285C93.3727 5.89294 89.3466 4.0801 85.8956 4.36336C83.1636 4.64661 80.6713 5.77964 78.3228 7.42252C75.5428 9.34867 73.0984 11.898 70.8937 14.6739C69.4558 16.4867 68.1137 18.4129 67.8262 20.9622C67.0593 27.0805 73.0505 28.7234 76.9328 29.2899C76.8369 28.3835 76.7411 27.4204 76.5973 26.514C72.8588 28.1569 69.1682 30.1963 65.8131 32.7456C63.0332 34.8984 60.2053 37.6743 60.1095 41.9798C60.0136 46.6252 63.2728 49.8543 66.8676 50.5341C71.1333 51.3273 75.3511 49.8543 79.1855 47.7016C83.6909 45.2089 88.2442 41.3 89.8259 35.4649C90.3052 33.7087 88.0045 32.9722 87.5253 34.7284C86.0874 39.997 81.534 43.3961 77.46 45.5488C73.9612 47.3617 68.8327 49.2312 65.0942 47.0784C60.2053 44.1892 63.0811 38.3541 66.2445 35.8048C69.5996 33.0855 73.4339 30.9895 77.2204 29.2899C78.5145 28.7234 78.2748 26.684 76.8849 26.514C73.386 26.0041 68.2575 24.248 70.8937 19.1493C72.5712 15.9202 75.6866 12.9743 78.2748 10.9349C79.9044 9.63192 81.6778 8.4989 83.5471 7.81908C86.1832 6.91266 89.3466 6.91266 91.4075 9.40532C93.6123 12.0113 92.8454 16.0335 89.8738 17.903C88.4838 18.6395 89.6821 21.0755 91.072 20.2257Z" fill="white"/>
<path d="M103.677 4.75985C101.185 11.8413 98.6449 18.866 96.1046 25.9474C94.7147 29.7997 93.3247 33.652 91.9348 37.5609C90.2093 42.3196 88.2442 47.5882 88.2921 52.9134C88.2921 54.7263 90.6886 54.7263 90.6886 52.9134C90.6407 47.7582 92.7016 42.6029 94.3792 37.9575C95.865 33.822 97.3508 29.6864 98.8366 25.6075C101.233 18.9227 103.63 12.2378 106.026 5.55297C106.601 3.85343 104.301 3.11696 103.677 4.75985Z" fill="white"/>
<path d="M101.856 27.1371C101.089 32.5756 100.322 37.9575 99.5554 43.396C99.4116 44.4157 100.083 45.4921 101.041 45.1522C102.815 44.529 104.396 42.8295 105.595 41.2999C109.812 36.1447 112.401 29.3465 114.557 22.7749C115.133 21.0754 112.784 20.3389 112.257 22.0385C110.244 28.1568 107.799 34.5584 103.869 39.3171C102.91 40.4502 101.281 42.093 100.37 42.4329C100.85 42.9995 101.377 43.6226 101.856 44.1891C102.623 38.7506 103.39 33.3687 104.157 27.9302C104.444 26.1174 102.144 25.3243 101.856 27.1371Z" fill="white"/>
<path d="M120.022 21.9819C117.385 27.1938 114.653 32.4624 112.401 38.0142C111.826 39.4305 113.264 40.8468 114.27 39.7138C116.667 37.0512 119.159 34.5019 121.747 32.0659C122.658 31.2161 123.52 30.423 124.479 29.6865C125.054 29.2333 125.965 28.8934 126.396 28.3269C126.492 28.2136 126.923 28.2136 126.971 28.1003C126.636 27.3638 126.348 27.3071 126.157 27.9303C126.061 28.1003 125.965 28.2702 125.821 28.4402C125.054 29.3466 124.479 30.7062 123.904 31.8393C122.849 33.992 121.46 36.9379 121.987 39.5438C122.514 42.0365 124.863 42.9996 126.78 42.2064C128.361 41.5266 129.847 40.0537 131.285 38.9773C132.771 37.8443 134.209 36.7679 135.695 35.6349C136.989 34.6718 135.79 32.1792 134.496 33.1989C133.346 34.0486 125.534 41.2434 124.431 39.2039C123.329 37.1645 126.348 32.5757 127.259 30.9895C128.074 29.6299 129.56 27.5338 128.218 25.9475C126.157 23.4549 121.46 28.7801 119.974 30.1397C117.385 32.5757 114.893 35.125 112.497 37.7876C113.12 38.3541 113.743 38.9207 114.366 39.4872C116.619 33.992 119.351 28.7234 121.987 23.4549C122.897 21.8686 120.836 20.4523 120.022 21.9819Z" fill="white"/>
</svg>
