<svg width="65" height="65" viewBox="0 0 65 65" fill="none" xmlns="http://www.w3.org/2000/svg">
<path d="M52.8125 20.3125L48.7771 24.3479L40.6521 16.2229L44.6875 12.1875C45.825 11.05 47.2875 10.5083 48.75 10.5083C50.2125 10.5083 51.675 11.05 52.8125 12.1875C55.0604 14.4354 55.0604 18.0646 52.8125 20.3125Z" fill="#E37590"/>
<path opacity="0.4" d="M48.7771 24.3479L17.6041 55.5208C15.3562 57.7687 11.7271 57.7687 9.47915 55.5208C7.23123 53.2729 7.23123 49.6437 9.47915 47.3958L40.6521 16.2229L48.7771 24.3479Z" fill="#E37590"/>
<path d="M26.948 9.47915L28.0584 5.71457C28.1667 5.36248 28.0584 4.98332 27.8147 4.71248C27.5709 4.44165 27.1376 4.33332 26.7855 4.44165L23.0209 5.55207L19.2563 4.44165C18.9042 4.33332 18.5251 4.44165 18.2542 4.6854C17.9834 4.95623 17.9022 5.3354 18.0105 5.68748L19.0938 9.47915L17.9834 13.2437C17.8751 13.5958 17.9834 13.975 18.2271 14.2458C18.498 14.5167 18.8771 14.5979 19.2292 14.4896L23.0209 13.4062L26.7855 14.5167C26.8938 14.5437 26.9751 14.5708 27.0834 14.5708C27.3542 14.5708 27.598 14.4625 27.8147 14.2729C28.0855 14.0021 28.1667 13.6229 28.0584 13.2708L26.948 9.47915Z" fill="#E37590"/>
<path d="M16.1145 25.7292L17.2249 21.9646C17.3332 21.6125 17.2249 21.2333 16.9812 20.9625C16.7103 20.6917 16.3312 20.6104 15.9791 20.7187L12.1874 21.8021L8.42282 20.6917C8.07074 20.5833 7.69157 20.6917 7.42074 20.9354C7.1499 21.2062 7.06865 21.5854 7.17699 21.9375L8.26032 25.7292L7.1499 29.4937C7.04157 29.8458 7.1499 30.225 7.39365 30.4958C7.66449 30.7667 8.04365 30.8479 8.39574 30.7396L12.1603 29.6291L15.9249 30.7396C16.0062 30.7667 16.1145 30.7666 16.2228 30.7666C16.4937 30.7666 16.7374 30.6583 16.9541 30.4687C17.2249 30.1979 17.3062 29.8187 17.1978 29.4667L16.1145 25.7292Z" fill="#E37590"/>
<path d="M56.7396 39.2708L57.85 35.5063C57.9583 35.1542 57.85 34.775 57.6062 34.5042C57.3354 34.2333 56.9562 34.1521 56.6041 34.2604L52.8396 35.3708L49.075 34.2604C48.7229 34.1521 48.3437 34.2604 48.0729 34.5042C47.8021 34.775 47.7208 35.1542 47.8291 35.5063L48.9396 39.2708L47.8291 43.0354C47.7208 43.3875 47.8291 43.7667 48.0729 44.0375C48.3437 44.3083 48.7229 44.3896 49.075 44.2813L52.8396 43.1708L56.6041 44.2813C56.6854 44.3083 56.7937 44.3083 56.9021 44.3083C57.1729 44.3083 57.4166 44.2 57.6333 44.0104C57.9041 43.7396 57.9854 43.3604 57.8771 43.0083L56.7396 39.2708Z" fill="#E37590"/>
</svg>
