<svg width="65" height="65" viewBox="0 0 65 65" fill="none" xmlns="http://www.w3.org/2000/svg">
<path opacity="0.4" d="M55.2771 18.85V26.5417L20.0417 52.3792L12.9187 47.0438C11.1583 45.7167 9.7229 42.8729 9.7229 40.6792V18.85C9.7229 15.8167 12.0521 12.4584 14.8958 11.4021L29.7104 5.85002C31.2542 5.28127 33.7458 5.28127 35.2896 5.85002L50.1042 11.4021C52.9479 12.4584 55.2771 15.8167 55.2771 18.85Z" fill="#E37590"/>
<path d="M55.2772 30.2521V40.6792C55.2772 42.8729 53.8418 45.7167 52.0814 47.0437L37.2668 58.1208C35.9668 59.0958 34.2334 59.5833 32.5001 59.5833C30.7668 59.5833 29.0334 59.0958 27.7334 58.1208L22.5334 54.2479L55.2772 30.2521Z" fill="#E37590"/>
</svg>
