<svg width="65" height="65" viewBox="0 0 65 65" fill="none" xmlns="http://www.w3.org/2000/svg">
<path opacity="0.4" d="M32.5001 59.5833C47.4578 59.5833 59.5834 47.4577 59.5834 32.5C59.5834 17.5422 47.4578 5.41663 32.5001 5.41663C17.5424 5.41663 5.41675 17.5422 5.41675 32.5C5.41675 47.4577 17.5424 59.5833 32.5001 59.5833Z" fill="#E37590"/>
<path d="M28.6542 42.1958C28.1125 42.1958 27.5979 41.9791 27.2187 41.6L19.5542 33.9354C18.7687 33.15 18.7687 31.85 19.5542 31.0645C20.3396 30.2791 21.6396 30.2791 22.425 31.0645L28.6542 37.2937L42.575 23.3729C43.3604 22.5875 44.6604 22.5875 45.4458 23.3729C46.2312 24.1583 46.2312 25.4583 45.4458 26.2437L30.0896 41.6C29.7104 41.9791 29.1958 42.1958 28.6542 42.1958Z" fill="#E37590"/>
</svg>
