<svg width="54" height="53" viewBox="0 0 54 53" fill="none" xmlns="http://www.w3.org/2000/svg">
<circle opacity="0.5" cx="21.5" cy="31.5" r="21.5" fill="#FFE5EE"/>
<path opacity="0.4" d="M43.2167 12.95C43.1001 12.9333 42.9834 12.9333 42.8667 12.95C40.2834 12.8667 38.2334 10.75 38.2334 8.14999C38.2334 5.49999 40.3834 3.33333 43.0501 3.33333C45.7001 3.33333 47.8667 5.48333 47.8667 8.14999C47.8501 10.75 45.8001 12.8667 43.2167 12.95Z" fill="#E37590"/>
<path opacity="0.4" d="M48.6503 24.5C46.7837 25.75 44.167 26.2167 41.7503 25.9C42.3837 24.5333 42.717 23.0167 42.7337 21.4167C42.7337 19.75 42.367 18.1667 41.667 16.7834C44.1337 16.45 46.7503 16.9167 48.6337 18.1667C51.267 19.9 51.267 22.75 48.6503 24.5Z" fill="#E37590"/>
<path opacity="0.4" d="M24.733 12.95C24.8497 12.9333 24.9663 12.9333 25.083 12.95C27.6663 12.8667 29.7163 10.75 29.7163 8.14999C29.7163 5.49999 27.5663 3.33333 24.8997 3.33333C22.2497 3.33333 20.083 5.48333 20.083 8.14999C20.0997 10.75 22.1497 12.8667 24.733 12.95Z" fill="#E37590"/>
<path opacity="0.4" d="M24.9169 21.4167C24.9169 23.0333 25.2669 24.5667 25.9002 25.95C23.5502 26.2 21.1002 25.7 19.3002 24.5167C16.6669 22.7667 16.6669 19.9166 19.3002 18.1666C21.0835 16.9666 23.6002 16.4833 25.9669 16.75C25.2835 18.15 24.9169 19.7333 24.9169 21.4167Z" fill="#E37590"/>
<path d="M34.2 26.45C34.0667 26.4333 33.9167 26.4333 33.7667 26.45C30.7 26.35 28.25 23.8333 28.25 20.7333C28.25 17.5667 30.8 15 33.9833 15C37.15 15 39.7167 17.5667 39.7167 20.7333C39.7167 23.8333 37.2833 26.35 34.2 26.45Z" fill="#E37590"/>
<path d="M28.783 29.9C26.2663 31.5833 26.2663 34.35 28.783 36.0167C31.6497 37.9333 36.3497 37.9333 39.2163 36.0167C41.733 34.3333 41.733 31.5667 39.2163 29.9C36.3663 27.9833 31.6663 27.9833 28.783 29.9Z" fill="#E37590"/>
</svg>
