<svg width="153" height="134" viewBox="0 0 153 134" fill="none" xmlns="http://www.w3.org/2000/svg">
<circle opacity="0.5" cx="42.7821" cy="46.3974" r="42.7821" fill="#FFE5EE"/>
<path d="M141.666 102.343C141.666 104.353 141.219 106.418 140.27 108.428C139.321 110.438 138.093 112.337 136.474 114.123C133.738 117.138 130.723 119.316 127.317 120.712C123.967 122.108 120.338 122.833 116.429 122.833C110.734 122.833 104.649 121.493 98.2278 118.758C91.807 116.022 85.3862 112.337 79.0212 107.703C72.6003 103.013 66.5145 97.82 60.7078 92.0692C54.957 86.2625 49.7645 80.1767 45.1303 73.8117C40.552 67.4467 36.867 61.0817 34.187 54.7725C31.507 48.4075 30.167 42.3217 30.167 36.515C30.167 32.7184 30.837 29.0892 32.177 25.7392C33.517 22.3334 35.6387 19.2067 38.5978 16.415C42.1712 12.8975 46.0795 11.1667 50.2112 11.1667C51.7745 11.1667 53.3378 11.5017 54.7337 12.1717C56.1853 12.8417 57.4695 13.8467 58.4745 15.2984L71.4278 33.5559C72.4328 34.9517 73.1587 36.2359 73.6612 37.4642C74.1637 38.6367 74.4428 39.8092 74.4428 40.87C74.4428 42.21 74.052 43.55 73.2703 44.8342C72.5445 46.1184 71.4837 47.4584 70.1437 48.7984L65.9003 53.2092C65.2862 53.8234 65.007 54.5492 65.007 55.4425C65.007 55.8892 65.0628 56.28 65.1745 56.7267C65.342 57.1734 65.5095 57.5084 65.6212 57.8434C66.6262 59.6859 68.357 62.0867 70.8137 64.99C73.3262 67.8934 76.0062 70.8525 78.9095 73.8117C81.9245 76.7709 84.8278 79.5067 87.787 82.0192C90.6903 84.4759 93.0912 86.1509 94.9895 87.1559C95.2687 87.2675 95.6037 87.435 95.9945 87.6025C96.4412 87.77 96.8878 87.8259 97.3903 87.8259C98.3395 87.8259 99.0653 87.4909 99.6795 86.8767L103.923 82.6892C105.319 81.2934 106.659 80.2325 107.943 79.5625C109.227 78.7809 110.511 78.39 111.907 78.39C112.968 78.39 114.084 78.6134 115.313 79.1159C116.541 79.6184 117.825 80.3442 119.221 81.2934L137.702 94.4142C139.154 95.4192 140.159 96.5917 140.773 97.9875C141.331 99.3834 141.666 100.779 141.666 102.343Z" stroke="#E37590" stroke-width="5" stroke-miterlimit="10"/>
<path d="M122.292 50.25C122.292 46.9 119.667 41.7634 115.759 37.5759C112.186 33.7234 107.44 30.7084 102.75 30.7084" stroke="#E37590" stroke-width="5" stroke-linecap="round" stroke-linejoin="round"/>
<path d="M141.833 50.25C141.833 28.6425 124.357 11.1667 102.75 11.1667" stroke="#E37590" stroke-width="5" stroke-linecap="round" stroke-linejoin="round"/>
</svg>
