<svg width="141" height="134" viewBox="0 0 141 134" fill="none" xmlns="http://www.w3.org/2000/svg">
<circle opacity="0.5" cx="42.7821" cy="46.3974" r="42.7821" fill="#FFE5EE"/>
<path d="M58.1433 60.6909C57.585 60.635 56.915 60.635 56.3008 60.6909C43.0125 60.2442 32.46 49.3567 32.46 35.9567C32.46 22.2775 43.515 11.1667 57.25 11.1667C70.9291 11.1667 82.04 22.2775 82.04 35.9567C81.9841 49.3567 71.4316 60.2442 58.1433 60.6909Z" stroke="#E37590" stroke-width="5" stroke-linecap="round" stroke-linejoin="round"/>
<path d="M98.6223 22.3333C109.454 22.3333 118.164 31.0991 118.164 41.875C118.164 52.4275 109.789 61.0258 99.3482 61.4166C98.9015 61.3608 98.399 61.3608 97.8965 61.4166" stroke="#E37590" stroke-width="5" stroke-linecap="round" stroke-linejoin="round"/>
<path d="M30.2265 81.2933C16.7149 90.3383 16.7149 105.078 30.2265 114.067C45.5807 124.341 70.7615 124.341 86.1157 114.067C99.6274 105.022 99.6274 90.2825 86.1157 81.2933C70.8174 71.0758 45.6365 71.0758 30.2265 81.2933Z" stroke="#E37590" stroke-width="5" stroke-linecap="round" stroke-linejoin="round"/>
<path d="M109.398 111.667C113.418 110.829 117.215 109.21 120.342 106.809C129.052 100.277 129.052 89.5009 120.342 82.9684C117.271 80.6234 113.53 79.06 109.566 78.1667" stroke="#E37590" stroke-width="5" stroke-linecap="round" stroke-linejoin="round"/>
</svg>
