<svg width="153" height="134" viewBox="0 0 153 134" fill="none" xmlns="http://www.w3.org/2000/svg">
<circle opacity="0.5" cx="42.7821" cy="46.3974" r="42.7821" fill="#FFE5EE"/>
<path d="M86.0003 44.0525L80.0262 54.4375C78.6862 56.7267 79.8028 58.625 82.427 58.625H89.5178C92.1978 58.625 93.2587 60.5233 91.9187 62.8125L86.0003 73.1975" stroke="#E37590" stroke-width="5" stroke-linecap="round" stroke-linejoin="round"/>
<path d="M65.3414 100.723V94.2466C52.4998 86.4858 41.9473 71.355 41.9473 55.275C41.9473 27.6375 67.3514 5.97415 96.0498 12.2275C108.668 15.0191 119.723 23.3942 125.474 34.9517C137.143 58.4017 124.86 83.3033 106.826 94.1908V100.667C106.826 102.287 107.44 106.027 101.466 106.027H70.7014C64.5598 106.083 65.3414 103.682 65.3414 100.723Z" stroke="#E37590" stroke-width="5" stroke-linecap="round" stroke-linejoin="round"/>
<path d="M66.458 122.833C79.2438 119.204 92.7555 119.204 105.541 122.833" stroke="#E37590" stroke-width="5" stroke-linecap="round" stroke-linejoin="round"/>
</svg>
