<svg width="54" height="53" viewBox="0 0 54 53" fill="none" xmlns="http://www.w3.org/2000/svg">
<circle opacity="0.5" cx="21.5" cy="31.5" r="21.5" fill="#FFE5EE"/>
<path opacity="0.6" d="M30.8497 6.66667C30.7163 7.16667 30.6663 7.71667 30.6663 8.33334V13.3333H22.333V10C22.333 8.16667 23.833 6.66667 25.6663 6.66667H30.8497Z" fill="#E37590"/>
<path d="M30.6663 31.6667V13.3333H22.333C18.9997 13.3333 17.333 15 17.333 18.3333V31.6667C17.333 35 18.9997 36.6667 22.333 36.6667H35.6663C32.333 36.6667 30.6663 35 30.6663 31.6667ZM25.2497 28.3333C25.2497 29.0167 24.683 29.5833 23.9997 29.5833C23.3163 29.5833 22.7497 29.0167 22.7497 28.3333V21.6667C22.7497 20.9833 23.3163 20.4167 23.9997 20.4167C24.683 20.4167 25.2497 20.9833 25.2497 21.6667V28.3333Z" fill="#E37590"/>
<path opacity="0.4" d="M37.3337 36.6667H35.667C32.3337 36.6667 30.667 35 30.667 31.6667V8.33333C30.667 4.99999 32.3337 3.33333 35.667 3.33333H45.667C49.0003 3.33333 50.667 4.99999 50.667 8.33333V31.6667C50.667 35 49.0003 36.6667 45.667 36.6667H44.0003" fill="#E37590"/>
<path d="M43.9997 30V36.6667H37.333V30C37.333 29.0833 38.083 28.3333 38.9997 28.3333H42.333C43.2497 28.3333 43.9997 29.0833 43.9997 30Z" fill="#E37590"/>
<path d="M37.333 22.9167C36.6497 22.9167 36.083 22.35 36.083 21.6667V13.3333C36.083 12.65 36.6497 12.0833 37.333 12.0833C38.0163 12.0833 38.583 12.65 38.583 13.3333V21.6667C38.583 22.35 38.0163 22.9167 37.333 22.9167Z" fill="#E37590"/>
<path d="M44 22.9167C43.3167 22.9167 42.75 22.35 42.75 21.6667V13.3333C42.75 12.65 43.3167 12.0833 44 12.0833C44.6833 12.0833 45.25 12.65 45.25 13.3333V21.6667C45.25 22.35 44.6833 22.9167 44 22.9167Z" fill="#E37590"/>
</svg>
