<svg width="65" height="65" viewBox="0 0 65 65" fill="none" xmlns="http://www.w3.org/2000/svg">
<path opacity="0.4" d="M47.4768 21.0437C47.2872 21.0166 47.0977 21.0166 46.9081 21.0437C42.7102 20.9083 39.3789 17.4687 39.3789 13.2437C39.3789 8.93746 42.8727 5.41663 47.206 5.41663C51.5122 5.41663 55.0331 8.91037 55.0331 13.2437C55.006 17.4687 51.6747 20.9083 47.4768 21.0437Z" fill="#E37590"/>
<path opacity="0.4" d="M56.3059 39.8125C53.2726 41.8437 49.0205 42.602 45.0934 42.0875C46.1226 39.8666 46.6643 37.4021 46.6914 34.8021C46.6914 32.0937 46.0955 29.5208 44.958 27.2729C48.9663 26.7312 53.2184 27.4895 56.2788 29.5208C60.558 32.3375 60.558 36.9687 56.3059 39.8125Z" fill="#E37590"/>
<path opacity="0.4" d="M17.442 21.0437C17.6316 21.0166 17.8212 21.0166 18.0107 21.0437C22.2087 20.9083 25.5399 17.4687 25.5399 13.2437C25.5399 8.93746 22.0462 5.41663 17.7128 5.41663C13.4066 5.41663 9.88574 8.91037 9.88574 13.2437C9.91283 17.4687 13.2441 20.9083 17.442 21.0437Z" fill="#E37590"/>
<path opacity="0.4" d="M17.7398 34.8021C17.7398 37.4292 18.3085 39.9209 19.3377 42.1688C15.5189 42.575 11.5377 41.7625 8.6127 39.8396C4.33353 36.9959 4.33353 32.3646 8.6127 29.5208C11.5106 27.5708 15.6002 26.7854 19.446 27.2188C18.3356 29.4938 17.7398 32.0667 17.7398 34.8021Z" fill="#E37590"/>
<path d="M32.825 42.9812C32.6083 42.9542 32.3646 42.9542 32.1208 42.9812C27.1375 42.8187 23.1562 38.7292 23.1562 33.6917C23.1562 28.5458 27.3 24.375 32.4729 24.375C37.6188 24.375 41.7896 28.5458 41.7896 33.6917C41.7896 38.7292 37.8354 42.8187 32.825 42.9812Z" fill="#E37590"/>
<path d="M24.0232 48.5875C19.9337 51.3229 19.9337 55.8188 24.0232 58.5271C28.6816 61.6417 36.3191 61.6417 40.9774 58.5271C45.067 55.7917 45.067 51.2959 40.9774 48.5875C36.3462 45.4729 28.7087 45.4729 24.0232 48.5875Z" fill="#E37590"/>
</svg>
