<svg width="65" height="65" viewBox="0 0 65 65" fill="none" xmlns="http://www.w3.org/2000/svg">
<path opacity="0.4" d="M29.683 5.57912L14.7872 11.1583C11.9434 12.2416 9.61426 15.6 9.61426 18.6604V40.5979C9.61426 42.7916 11.0497 45.6895 12.8101 46.9895L27.7059 58.1208C30.333 60.0979 34.6393 60.0979 37.2663 58.1208L52.1622 46.9895C53.9226 45.6625 55.358 42.7916 55.358 40.5979V18.6604C55.358 15.627 53.0288 12.2416 50.1851 11.1854L35.2893 5.6062C33.7726 5.01037 31.2268 5.01037 29.683 5.57912Z" fill="#E37590"/>
<path d="M28.8712 38.5396C28.3566 38.5396 27.8421 38.35 27.4358 37.9437L23.0754 33.5833C22.29 32.7979 22.29 31.4979 23.0754 30.7125C23.8608 29.9271 25.1608 29.9271 25.9462 30.7125L28.8712 33.6375L39.0816 23.4271C39.8671 22.6417 41.1671 22.6417 41.9525 23.4271C42.7379 24.2125 42.7379 25.5125 41.9525 26.2979L30.3066 37.9437C29.9004 38.35 29.3858 38.5396 28.8712 38.5396Z" fill="#E37590"/>
</svg>
