<svg width="65" height="65" viewBox="0 0 65 65" fill="none" xmlns="http://www.w3.org/2000/svg">
<path opacity="0.4" d="M32.5003 59.5833C47.458 59.5833 59.5837 47.4577 59.5837 32.5C59.5837 17.5422 47.458 5.41663 32.5003 5.41663C17.5426 5.41663 5.41699 17.5422 5.41699 32.5C5.41699 47.4577 17.5426 59.5833 32.5003 59.5833Z" fill="#E37590"/>
<path d="M28.6539 42.1958C28.1122 42.1958 27.5977 41.9791 27.2185 41.6L19.5539 33.9354C18.7685 33.15 18.7685 31.85 19.5539 31.0645C20.3393 30.2791 21.6393 30.2791 22.4247 31.0645L28.6539 37.2937L42.5747 23.3729C43.3602 22.5875 44.6602 22.5875 45.4456 23.3729C46.231 24.1583 46.231 25.4583 45.4456 26.2437L30.0893 41.6C29.7102 41.9791 29.1956 42.1958 28.6539 42.1958Z" fill="#E37590"/>
</svg>
